<svg width="20" height="20" viewBox="0 0 24 24" fill="none" xmlns="http://www.w3.org/2000/svg">
  <path d="M12 14.625C13.4497 14.625 14.625 13.4497 14.625 12C14.625 10.5503 13.4497 9.375 12 9.375C10.5503 9.375 9.375 10.5503 9.375 12C9.375 13.4497 10.5503 14.625 12 14.625Z" stroke="#124C84" stroke-width="1.5"/>
  <path d="M19.5 12C19.5 11.4327 19.4546 10.8761 19.3672 10.3335L21 9L19.5 6L17.25 6.375C16.8481 5.9309 16.3904 5.53967 15.8867 5.21484L15.75 3H8.25L8.11328 5.21484C7.60963 5.53967 7.15192 5.9309 6.75 6.375L4.5 6L3 9L4.63281 10.3335C4.54544 10.8761 4.5 11.4327 4.5 12C4.5 12.5673 4.54544 13.1239 4.63281 13.6665L3 15L4.5 18L6.75 17.625C7.15192 18.0691 7.60963 18.4603 8.11328 18.7852L8.25 21H15.75L15.8867 18.7852C16.3904 18.4603 16.8481 18.0691 17.25 17.625L19.5 18L21 15L19.3672 13.6665C19.4546 13.1239 19.5 12.5673 19.5 12Z" stroke="#124C84" stroke-width="1.5" stroke-linejoin="round"/>
</svg>
